<svg xmlns="http://www.w3.org/2000/svg" viewBox="40.9 37 139 40.8">
<style type="text/css">
	.st0{fill:none;}
	.st1{fill:currentColor;}
</style>	<path class="st1" d="M128.9,64.5l-4.5-4.5c-0.6-0.6-0.9-1.4-0.9-2.3c0-1.8,1.4-3.2,3.2-3.2h2.2c0.7,0,1.3-0.6,1.3-1.3v-2.4l-18.4,0
		c-3.1,0-5.6,2.5-5.6,5.6c0,1.6,0.6,3,1.6,4l4.5,4.5c0.6,0.6,0.9,1.4,0.9,2.3c0,1.8-1.4,3.2-3.2,3.2h-6.9c-2.7,0-4.9-2.2-4.9-4.9
		l0-10.9h4.2c0.7,0,1.3-0.6,1.3-1.3v-2.4h-5.5v-12l-14.4,6.3v5.7h-7V37H66c-2.1,0-3.7,1.7-3.7,3.7v10h-7.7c-8,0-13.7,4.4-13.7,11.7
		c0,6.5,6.6,11.6,13.7,11.6h17.2c2.7,0,4.9-2.2,4.9-4.9V54.5h7c0,0,0,7.5,0,9.5c0,5.4,3.3,10,9.9,10h31.2c3.1,0,5.6-2.5,5.6-5.6
		C130.5,66.9,129.9,65.5,128.9,64.5 M62.3,69.6c0,0.4-0.4,0.8-0.8,0.8H61c-5,0-6.9-3.5-6.9-7.9c0.1-4.6,2-7.9,6.9-7.9h1.3V69.6z"/>
	<polygon class="st1" points="155.5,55.2 151,50.8 138.6,50.8 149.2,61.5 	"/>
	<polygon class="st1" points="179.9,47.1 168,47.1 137.3,77.8 149.2,77.8 157.4,69.6 161.8,74.1 174.3,74.1 163.6,63.4 	"/></svg>