<svg xmlns="http://www.w3.org/2000/svg" viewBox="40.9 111 191.2 66.7">
<style type="text/css">
	.st0{fill:none;}
	.st1{fill:currentColor;}
</style>	<path d="M102,111c0,0-9.6,19-11.2,22.1C89.3,130,79.6,111,79.6,111H60.8V148h10.5v-26.7h2.1C74,122.4,86.5,148,86.5,148h8.6
		c0,0,12.5-25.6,13.1-26.7h2.1V148h10.5V111H102z"/>
	<rect x="40.9" y="111" width="11.8" height="36.9"/>
	<path d="M122.9,148h12.4c0,0,2.7-5.3,3.2-6.3H162c0.5,0.9,3.2,6.3,3.2,6.3h12.4L158.8,111l-0.6,0h-16.5L122.9,148z M150.8,119.4
		c0.5,1,5.9,11.6,7.1,14h-15.4c1.2-2.4,6.6-13.1,7.1-14H150.8z"/>
	<path d="M215.3,111c0,0-8.7,10.4-10.1,12c-1.4-1.7-9.9-12-9.9-12h-14.4c0,0,13.5,16.1,14.6,17.3c-1.1,1.3-17.4,19.6-17.4,19.6h15.3
		c0,0,10.4-11.9,11.8-13.5c1.4,1.6,11.6,13.5,11.6,13.5h15.3c0,0-16.3-18.4-17.4-19.6c1.1-1.3,14.6-17.3,14.6-17.3H215.3z"/>
		<path d="M42.7,164.5h14v1.6h-14v9.5h15.1v1.8H40.9v-23.9h16.5v1.8H42.7V164.5z"/>
		<path d="M63.9,153.5L80,173.3v-19.8h1.8v23.9h-0.7l-16.1-19.8v19.8h-1.8v-23.9H63.9z"/>
		<path d="M105.6,177.4v-10.9H90.4v10.9h-1.8v-23.9h1.8v11.4h15.2v-11.4h1.8v23.9H105.6z"/>
		<path d="M133.3,177.4l-2.6-5.9h-14.3l-2.6,5.9h-2l10.7-23.9h2l10.7,23.9H133.3z M129.9,169.8l-6.4-14.6l-6.4,14.6H129.9z"/>
		<path d="M140.3,153.5l16.1,19.8v-19.8h1.8v23.9h-0.7l-16.1-19.8v19.8h-1.8v-23.9H140.3z"/>
		<path d="M184.5,174.1c-1.2,1.2-2.6,2.1-4.1,2.7c-1.5,0.6-3.1,0.9-4.6,0.9c-2,0-3.8-0.3-5.3-1c-1.5-0.6-2.8-1.5-3.8-2.6
			c-1-1.1-1.8-2.4-2.3-3.9c-0.5-1.5-0.8-3-0.8-4.6c0-1.6,0.2-3.1,0.7-4.6c0.5-1.5,1.3-2.8,2.3-3.9c1-1.1,2.3-2.1,3.9-2.8
			c1.5-0.7,3.4-1,5.4-1c1.6,0,3.1,0.3,4.6,0.9c1.5,0.6,2.9,1.5,4.1,2.7l-1.3,1.1c-1-1-2.2-1.8-3.5-2.3c-1.3-0.5-2.6-0.8-4-0.8
			c-1.8,0-3.3,0.3-4.6,0.9c-1.3,0.6-2.4,1.3-3.3,2.3c-0.9,1-1.5,2.1-2,3.4c-0.4,1.3-0.6,2.6-0.6,4.1c0,1.4,0.3,2.8,0.7,4
			c0.4,1.3,1.1,2.4,2,3.3c0.9,1,2,1.7,3.3,2.3c1.3,0.6,2.8,0.8,4.5,0.8c1.4,0,2.7-0.3,4-0.8c1.3-0.5,2.5-1.3,3.5-2.3L184.5,174.1z"
			/>
		<path d="M191.2,164.5h14v1.6h-14v9.5h15.1v1.8h-16.9v-23.9h16.5v1.8h-14.7V164.5z"/>
		<path d="M219.7,153.5c2,0,3.8,0.3,5.3,1c1.5,0.7,2.8,1.6,3.8,2.6c1,1.1,1.8,2.3,2.3,3.7c0.5,1.4,0.8,2.8,0.8,4.3
			c0,1.5-0.2,3-0.7,4.5c-0.5,1.5-1.2,2.8-2.2,3.9c-1,1.2-2.3,2.1-3.8,2.8c-1.5,0.7-3.4,1.1-5.5,1.1h-8.1v-23.9H219.7z M213.4,155.2
			v20.4h6.3c1.8,0,3.3-0.3,4.6-0.9c1.3-0.6,2.4-1.4,3.2-2.4c0.9-1,1.5-2.1,1.9-3.4c0.4-1.3,0.6-2.5,0.6-3.8c0-1.3-0.3-2.5-0.7-3.7
			c-0.4-1.2-1.1-2.2-1.9-3.2c-0.8-0.9-1.9-1.7-3.2-2.3c-1.3-0.6-2.8-0.9-4.5-0.9H213.4z"/></svg>